<svg xmlns="http://www.w3.org/2000/svg" version="1.1" xmlns:xlink="http://www.w3.org/1999/xlink" xmlns:svgjs="http://svgjs.com/svgjs" width="199.4597" height="122.89219"><svg width="199.4597" zoomAndPan="magnify" viewBox="0 0 149.59478 92.169141" height="122.89219" preserveAspectRatio="xMidYMid meet" version="1.0" id="SvgjsSvg1151" sodipodi:docname="the barketing department.svg" inkscape:version="1.1.2 (0a00cf5339, 2022-02-04)" xmlns:inkscape="http://www.inkscape.org/namespaces/inkscape" xmlns:sodipodi="http://sodipodi.sourceforge.net/DTD/sodipodi-0.dtd" xmlns="http://www.w3.org/2000/svg" xmlns:svg="http://www.w3.org/2000/svg">
  <sodipodi:namedview id="SvgjsSodipodi:namedview1150" pagecolor="#ffffff" bordercolor="#666666" borderopacity="1.0" inkscape:pageshadow="2" inkscape:pageopacity="0.0" inkscape:pagecheckerboard="0" showgrid="false" inkscape:zoom="1.0239954" inkscape:cx="309.08343" inkscape:cy="542.48292" inkscape:window-width="1920" inkscape:window-height="1016" inkscape:window-x="0" inkscape:window-y="0" inkscape:window-maximized="1" inkscape:current-layer="svg287"></sodipodi:namedview>
  <defs id="SvgjsDefs1149">
    <g id="SvgjsG1148"></g>
    <clipPath id="SvgjsClipPath1147">
      <path d="m 493,309 h 9 v 7 h -9 z m 0,0" clip-rule="nonzero" id="SvgjsPath1146"></path>
    </clipPath>
    <clipPath id="SvgjsClipPath1145">
      <path d="m 490.83984,234.14062 131.75782,54.28125 -36.85547,89.45704 -131.75782,-54.28125 z m 0,0" clip-rule="nonzero" id="SvgjsPath1144"></path>
    </clipPath>
    <clipPath id="SvgjsClipPath1143">
      <path d="m 490.83984,234.14062 131.75782,54.28125 -36.85547,89.45704 -131.75782,-54.28125 z m 0,0" clip-rule="nonzero" id="SvgjsPath1142"></path>
    </clipPath>
    <clipPath id="SvgjsClipPath1141">
      <path d="m 518,300 h 5 v 6 h -5 z m 0,0" clip-rule="nonzero" id="SvgjsPath1140"></path>
    </clipPath>
    <clipPath id="SvgjsClipPath1139">
      <path d="m 490.83984,234.14062 131.75782,54.28125 -36.85547,89.45704 -131.75782,-54.28125 z m 0,0" clip-rule="nonzero" id="SvgjsPath1138"></path>
    </clipPath>
    <clipPath id="SvgjsClipPath1137">
      <path d="m 490.83984,234.14062 131.75782,54.28125 -36.85547,89.45704 -131.75782,-54.28125 z m 0,0" clip-rule="nonzero" id="SvgjsPath1136"></path>
    </clipPath>
    <clipPath id="SvgjsClipPath1135">
      <path d="m 490,301 h 6 v 5 h -6 z m 0,0" clip-rule="nonzero" id="SvgjsPath1134"></path>
    </clipPath>
    <clipPath id="SvgjsClipPath1133">
      <path d="m 490.83984,234.14062 131.75782,54.28125 -36.85547,89.45704 -131.75782,-54.28125 z m 0,0" clip-rule="nonzero" id="SvgjsPath1132"></path>
    </clipPath>
    <clipPath id="SvgjsClipPath1131">
      <path d="m 490.83984,234.14062 131.75782,54.28125 -36.85547,89.45704 -131.75782,-54.28125 z m 0,0" clip-rule="nonzero" id="SvgjsPath1130"></path>
    </clipPath>
    <clipPath id="SvgjsClipPath1129">
      <path d="m 462,262 h 151 v 93 H 462 Z m 0,0" clip-rule="nonzero" id="SvgjsPath1128"></path>
    </clipPath>
    <clipPath id="SvgjsClipPath1127">
      <path d="m 490.83984,234.14062 131.75782,54.28125 -36.85547,89.45704 -131.75782,-54.28125 z m 0,0" clip-rule="nonzero" id="SvgjsPath1126"></path>
    </clipPath>
    <clipPath id="SvgjsClipPath1125">
      <path d="m 490.83984,234.14062 131.75782,54.28125 -36.85547,89.45704 -131.75782,-54.28125 z m 0,0" clip-rule="nonzero" id="SvgjsPath1124"></path>
    </clipPath>
    <clipPath id="SvgjsClipPath1123">
      <path d="m 542,295 h 7 v 7 h -7 z m 0,0" clip-rule="nonzero" id="SvgjsPath1122"></path>
    </clipPath>
    <clipPath id="SvgjsClipPath1121">
      <path d="m 490.83984,234.14062 131.75782,54.28125 -36.85547,89.45704 -131.75782,-54.28125 z m 0,0" clip-rule="nonzero" id="SvgjsPath1120"></path>
    </clipPath>
    <clipPath id="SvgjsClipPath1119">
      <path d="m 490.83984,234.14062 131.75782,54.28125 -36.85547,89.45704 -131.75782,-54.28125 z m 0,0" clip-rule="nonzero" id="SvgjsPath1118"></path>
    </clipPath>
  </defs>
  <g fill="#ffc36e" fill-opacity="1" id="SvgjsG1117" transform="translate(-462.51431,-262.56459)">
    <g transform="translate(53.147638,306.11349)" id="SvgjsG1116">
      <g id="SvgjsG1115">
        <path d="m 9.6875,-55.21875 v -20.5625 h 19.046875 v 20.5625 h 11.625 v 14.53125 h -11.625 v 17.546875 c 0,5.09375 1.4375,7.640625 4.3125,7.640625 0.71875,0 1.46875,-0.140625 2.25,-0.421875 0.789063,-0.289063 1.40625,-0.582031 1.84375,-0.875 l 0.640625,-0.421875 4.734375,15.390625 c -4.09375,2.289063 -8.757813,3.4375 -13.984375,3.4375 -3.59375,0 -6.683594,-0.625 -9.265625,-1.875 -2.585937,-1.257813 -4.542969,-2.945313 -5.875,-5.0625 C 12.066406,-7.441406 11.117188,-9.664062 10.546875,-12 9.972656,-14.332031 9.6875,-16.828125 9.6875,-19.484375 V -40.6875 H 1.71875 v -14.53125 z m 0,0" id="SvgjsPath1114"></path>
      </g>
    </g>
  </g>
  <g fill="#ffc36e" fill-opacity="1" id="SvgjsG1113" transform="translate(-462.51431,-262.56459)">
    <g transform="translate(95.662007,306.11349)" id="SvgjsG1112">
      <g id="SvgjsG1111">
        <path d="m 6.453125,0 v -92.578125 h 19.0625 v 43.171875 h 0.203125 c 4.957031,-4.945312 10.234375,-7.421875 15.828125,-7.421875 2.726563,0 5.4375,0.359375 8.125,1.078125 2.695313,0.710938 5.28125,1.820312 7.75,3.328125 2.476563,1.511719 4.488281,3.648437 6.03125,6.40625 1.539063,2.761719 2.3125,5.976563 2.3125,9.640625 V 0 H 46.71875 v -31.21875 c 0,-2.863281 -0.917969,-5.375 -2.75,-7.53125 -1.835938,-2.15625 -4.21875,-3.234375 -7.15625,-3.234375 -2.875,0 -5.480469,1.117187 -7.8125,3.34375 -2.324219,2.21875 -3.484375,4.695313 -3.484375,7.421875 V 0 Z m 0,0" id="SvgjsPath1110"></path>
      </g>
    </g>
  </g>
  <g fill="#ffc36e" fill-opacity="1" id="SvgjsG1109" transform="translate(-462.51431,-262.56459)">
    <g transform="translate(166.8063,306.11349)" id="SvgjsG1108">
      <g id="SvgjsG1107">
        <path d="M 62.328125,-24.96875 H 22.28125 c 0,3.875 1.253906,6.746094 3.765625,8.609375 2.507813,1.867187 5.238281,2.796875 8.1875,2.796875 3.082031,0 5.519531,-0.410156 7.3125,-1.234375 1.789063,-0.820313 3.835937,-2.457031 6.140625,-4.90625 L 61.46875,-12.8125 C 55.726562,-3.195312 46.179688,1.609375 32.828125,1.609375 c -8.324219,0 -15.464844,-2.847656 -21.421875,-8.546875 -5.960938,-5.707031 -8.9375,-12.578125 -8.9375,-20.609375 0,-8.039063 2.976562,-14.929687 8.9375,-20.671875 5.957031,-5.738281 13.097656,-8.609375 21.421875,-8.609375 8.757813,0 15.882813,2.53125 21.375,7.59375 5.488281,5.054687 8.234375,12.277344 8.234375,21.671875 0,1.292969 -0.03906,2.15625 -0.109375,2.59375 z M 22.8125,-35.515625 h 21 c -0.4375,-2.875 -1.574219,-5.082031 -3.40625,-6.625 -1.824219,-1.539063 -4.167969,-2.3125 -7.03125,-2.3125 -3.167969,0 -5.683594,0.828125 -7.546875,2.484375 -1.867187,1.648438 -2.871094,3.796875 -3.015625,6.453125 z m 0,0" id="SvgjsPath1106"></path>
      </g>
    </g>
  </g>
  <g fill="#ffc36e" fill-opacity="1" id="SvgjsG1105" transform="translate(-462.51431,-262.56459)">
    <g transform="translate(231.71172,306.11349)" id="SvgjsG1104">
      <g id="SvgjsG1103"></g>
    </g>
  </g>
  <g fill="#ffc36e" fill-opacity="1" id="SvgjsG1102" transform="translate(-462.51431,-262.56459)">
    <g transform="translate(53.147638,422.53968)" id="SvgjsG1101">
      <g id="SvgjsG1100">
        <path d="m 63.296875,-48.328125 c 5.164063,5.667969 7.75,12.59375 7.75,20.78125 0,8.179687 -2.585937,15.085937 -7.75,20.71875 -5.167969,5.625 -11.734375,8.4375 -19.703125,8.4375 -7.324219,0 -13.351562,-2.617187 -18.078125,-7.859375 h -0.21875 V 0 H 6.453125 v -92.578125 h 19.0625 V -49.9375 c 4.726563,-4.59375 10.753906,-6.890625 18.078125,-6.890625 7.96875,0 14.535156,2.835937 19.703125,8.5 z M 47.25,-18.234375 c 2.375,-2.40625 3.5625,-5.507813 3.5625,-9.3125 0,-3.8125 -1.242188,-6.9375 -3.71875,-9.375 -2.480469,-2.4375 -5.546875,-3.65625 -9.203125,-3.65625 -3.59375,0 -6.632813,1.21875 -9.109375,3.65625 -2.46875,2.4375 -3.703125,5.558594 -3.703125,9.359375 0,3.742188 1.203125,6.828125 3.609375,9.265625 2.40625,2.4375 5.472656,3.65625 9.203125,3.65625 3.875,0 6.992187,-1.195313 9.359375,-3.59375 z m 0,0" id="SvgjsPath1099"></path>
      </g>
    </g>
  </g>
  <g fill="#ffc36e" fill-opacity="1" id="SvgjsG1098" transform="translate(-462.51431,-262.56459)">
    <g transform="translate(126.65982,422.53968)" id="SvgjsG1097">
      <g id="SvgjsG1096">
        <path d="m 10.21875,-6.828125 c -5.167969,-5.632813 -7.75,-12.539063 -7.75,-20.71875 0,-8.1875 2.582031,-15.113281 7.75,-20.78125 5.164062,-5.664063 11.734375,-8.5 19.703125,-8.5 7.320313,0 13.347656,2.296875 18.078125,6.890625 v -5.28125 H 67.0625 V 0 H 48.21875 V -6.25 H 48 c -4.730469,5.242188 -10.757812,7.859375 -18.078125,7.859375 -7.96875,0 -14.539063,-2.8125 -19.703125,-8.4375 z m 16.203125,-30.09375 c -2.46875,2.4375 -3.703125,5.5625 -3.703125,9.375 0,3.804687 1.179688,6.90625 3.546875,9.3125 2.363281,2.398437 5.484375,3.59375 9.359375,3.59375 3.726562,0 6.796875,-1.21875 9.203125,-3.65625 2.40625,-2.4375 3.609375,-5.523437 3.609375,-9.265625 0,-3.800781 -1.242188,-6.921875 -3.71875,-9.359375 -2.46875,-2.4375 -5.5,-3.65625 -9.09375,-3.65625 -3.65625,0 -6.726562,1.21875 -9.203125,3.65625 z m 0,0" id="SvgjsPath1095"></path>
      </g>
    </g>
  </g>
  <g fill="#ffc36e" fill-opacity="1" id="SvgjsG1094" transform="translate(-462.51431,-262.56459)">
    <g transform="translate(200.17201,422.53968)" id="SvgjsG1093">
      <g id="SvgjsG1092">
        <path d="m 6.453125,0 v -55.21875 h 19.0625 V -47.25 h 0.203125 c 0.144531,-0.289062 0.378906,-0.648438 0.703125,-1.078125 0.320313,-0.425781 1.019531,-1.175781 2.09375,-2.25 1.082031,-1.082031 2.234375,-2.054687 3.453125,-2.921875 1.21875,-0.863281 2.796875,-1.632812 4.734375,-2.3125 1.9375,-0.675781 3.910156,-1.015625 5.921875,-1.015625 2.082031,0 4.128906,0.289063 6.140625,0.859375 2.007813,0.574219 3.476563,1.148438 4.40625,1.71875 L 54.6875,-53.390625 46.71875,-37.25 c -2.375,-2 -5.679688,-3 -9.90625,-3 -2.292969,0 -4.265625,0.5 -5.921875,1.5 -1.648437,1 -2.8125,2.21875 -3.5,3.65625 -0.679687,1.4375 -1.164063,2.664062 -1.453125,3.671875 -0.28125,1 -0.421875,1.789063 -0.421875,2.359375 V 0 Z m 0,0" id="SvgjsPath1091"></path>
      </g>
    </g>
  </g>
  <g fill="#ffc36e" fill-opacity="1" id="SvgjsG1090" transform="translate(-462.51431,-262.56459)">
    <g transform="translate(253.7724,422.53968)" id="SvgjsG1089">
      <g id="SvgjsG1088">
        <path d="M 69.53125,-55.21875 43.265625,-28.84375 72.125,0 H 47.578125 l -22.0625,-22.0625 V 0 h -19.0625 v -92.578125 h 19.0625 v 56.625 L 44.78125,-55.21875 Z m 0,0" id="SvgjsPath1087"></path>
      </g>
    </g>
  </g>
  <g fill="#ffc36e" fill-opacity="1" id="SvgjsG1086" transform="translate(-462.51431,-262.56459)">
    <g transform="translate(323.30223,422.53968)" id="SvgjsG1085">
      <g id="SvgjsG1084">
        <path d="M 62.328125,-24.96875 H 22.28125 c 0,3.875 1.253906,6.746094 3.765625,8.609375 2.507813,1.867187 5.238281,2.796875 8.1875,2.796875 3.082031,0 5.519531,-0.410156 7.3125,-1.234375 1.789063,-0.820313 3.835937,-2.457031 6.140625,-4.90625 L 61.46875,-12.8125 C 55.726562,-3.195312 46.179688,1.609375 32.828125,1.609375 c -8.324219,0 -15.464844,-2.847656 -21.421875,-8.546875 -5.960938,-5.707031 -8.9375,-12.578125 -8.9375,-20.609375 0,-8.039063 2.976562,-14.929687 8.9375,-20.671875 5.957031,-5.738281 13.097656,-8.609375 21.421875,-8.609375 8.757813,0 15.882813,2.53125 21.375,7.59375 5.488281,5.054687 8.234375,12.277344 8.234375,21.671875 0,1.292969 -0.03906,2.15625 -0.109375,2.59375 z M 22.8125,-35.515625 h 21 c -0.4375,-2.875 -1.574219,-5.082031 -3.40625,-6.625 -1.824219,-1.539063 -4.167969,-2.3125 -7.03125,-2.3125 -3.167969,0 -5.683594,0.828125 -7.546875,2.484375 -1.867187,1.648438 -2.871094,3.796875 -3.015625,6.453125 z m 0,0" id="SvgjsPath1083"></path>
      </g>
    </g>
  </g>
  <g fill="#ffc36e" fill-opacity="1" id="SvgjsG1082" transform="translate(-462.51431,-262.56459)">
    <g transform="translate(388.20389,422.53968)" id="SvgjsG1081">
      <g id="SvgjsG1080">
        <path d="m 9.6875,-55.21875 v -20.5625 h 19.046875 v 20.5625 h 11.625 v 14.53125 h -11.625 v 17.546875 c 0,5.09375 1.4375,7.640625 4.3125,7.640625 0.71875,0 1.46875,-0.140625 2.25,-0.421875 0.789063,-0.289063 1.40625,-0.582031 1.84375,-0.875 l 0.640625,-0.421875 4.734375,15.390625 c -4.09375,2.289063 -8.757813,3.4375 -13.984375,3.4375 -3.59375,0 -6.683594,-0.625 -9.265625,-1.875 -2.585937,-1.257813 -4.542969,-2.945313 -5.875,-5.0625 C 12.066406,-7.441406 11.117188,-9.664062 10.546875,-12 9.972656,-14.332031 9.6875,-16.828125 9.6875,-19.484375 V -40.6875 H 1.71875 v -14.53125 z m 0,0" id="SvgjsPath1079"></path>
      </g>
    </g>
  </g>
  <g fill="#ffc36e" fill-opacity="1" id="SvgjsG1078" transform="translate(-462.51431,-262.56459)">
    <g transform="translate(430.71826,422.53968)" id="SvgjsG1077">
      <g id="SvgjsG1076">
        <path d="m 8.28125,-86 c 2.226562,-2.226562 4.882812,-3.34375 7.96875,-3.34375 3.082031,0 5.738281,1.117188 7.96875,3.34375 2.226562,2.21875 3.34375,4.875 3.34375,7.96875 0,3.085938 -1.117188,5.742188 -3.34375,7.96875 -2.230469,2.21875 -4.886719,3.328125 -7.96875,3.328125 -3.085938,0 -5.742188,-1.109375 -7.96875,-3.328125 -2.21875,-2.226562 -3.328125,-4.882812 -3.328125,-7.96875 0,-3.09375 1.109375,-5.75 3.328125,-7.96875 z M 6.453125,-55.21875 V 0 h 19.0625 v -55.21875 z m 0,0" id="SvgjsPath1075"></path>
      </g>
    </g>
  </g>
  <g fill="#ffc36e" fill-opacity="1" id="SvgjsG1074" transform="translate(-462.51431,-262.56459)">
    <g transform="translate(463.22292,422.53968)" id="SvgjsG1073">
      <g id="SvgjsG1072">
        <path d="m 6.453125,0 v -55.21875 h 19.0625 v 5.8125 h 0.203125 c 4.957031,-4.945312 10.234375,-7.421875 15.828125,-7.421875 2.726563,0 5.4375,0.359375 8.125,1.078125 2.695313,0.710938 5.28125,1.820312 7.75,3.328125 2.476563,1.511719 4.488281,3.648437 6.03125,6.40625 1.539063,2.761719 2.3125,5.976563 2.3125,9.640625 V 0 H 46.71875 v -31.21875 c 0,-2.863281 -0.917969,-5.375 -2.75,-7.53125 -1.835938,-2.15625 -4.21875,-3.234375 -7.15625,-3.234375 -2.875,0 -5.480469,1.117187 -7.8125,3.34375 -2.324219,2.21875 -3.484375,4.695313 -3.484375,7.421875 V 0 Z m 0,0" id="SvgjsPath1071"></path>
      </g>
    </g>
  </g>
  <g fill="#ffc36e" fill-opacity="1" id="SvgjsG1070" transform="translate(-462.51431,-262.56459)">
    <g transform="translate(534.36722,422.53968)" id="SvgjsG1069">
      <g id="SvgjsG1068">
        <path d="M 3.984375,13.5625 19.59375,5.921875 c 2.863281,4.738281 7.847656,7.109375 14.953125,7.109375 3.300781,0 6.367187,-1.0625 9.203125,-3.1875 C 46.582031,7.726562 48,4.484375 48,0.109375 v -4.09375 c -3.367188,3.730469 -9.390625,5.59375 -18.078125,5.59375 -7.96875,0 -14.539063,-2.8125 -19.703125,-8.4375 -5.167969,-5.632813 -7.75,-12.539063 -7.75,-20.71875 0,-8.1875 2.582031,-15.113281 7.75,-20.78125 5.164062,-5.664063 11.734375,-8.5 19.703125,-8.5 7.101563,0 13.023437,2.1875 17.765625,6.5625 H 48 V -55.21875 H 67.0625 V 1.5 c 0,8.976562 -2.980469,15.90625 -8.9375,20.78125 -5.960938,4.875 -13.820312,7.3125 -23.578125,7.3125 -15.78125,0 -25.96875,-5.34375 -30.5625,-16.03125 z m 22.4375,-50.484375 c -2.46875,2.4375 -3.703125,5.5625 -3.703125,9.375 0,3.804687 1.179688,6.90625 3.546875,9.3125 2.363281,2.398437 5.484375,3.59375 9.359375,3.59375 3.726562,0 6.796875,-1.21875 9.203125,-3.65625 2.40625,-2.4375 3.609375,-5.523437 3.609375,-9.265625 0,-3.800781 -1.242188,-6.921875 -3.71875,-9.359375 -2.46875,-2.4375 -5.5,-3.65625 -9.09375,-3.65625 -3.65625,0 -6.726562,1.21875 -9.203125,3.65625 z m 0,0" id="SvgjsPath1067"></path>
      </g>
    </g>
  </g>
  <g fill="#ffc36e" fill-opacity="1" id="SvgjsG1066" transform="translate(-462.51431,-262.56459)">
    <g transform="translate(607.89092,422.53968)" id="SvgjsG1065">
      <g id="SvgjsG1064"></g>
    </g>
  </g>
  <g fill="#ffc36e" fill-opacity="1" id="SvgjsG1063" transform="translate(-462.51431,-262.56459)">
    <g transform="translate(53.147638,538.96587)" id="SvgjsG1062">
      <g id="SvgjsG1061">
        <path d="m 10.21875,-6.828125 c -5.167969,-5.632813 -7.75,-12.539063 -7.75,-20.71875 0,-8.1875 2.582031,-15.113281 7.75,-20.78125 5.164062,-5.664063 11.734375,-8.5 19.703125,-8.5 7.320313,0 13.347656,2.296875 18.078125,6.890625 V -92.578125 H 67.0625 V 0 H 48.21875 V -6.25 H 48 c -4.730469,5.242188 -10.757812,7.859375 -18.078125,7.859375 -7.96875,0 -14.539063,-2.8125 -19.703125,-8.4375 z m 16.203125,-30.09375 c -2.46875,2.4375 -3.703125,5.5625 -3.703125,9.375 0,3.804687 1.179688,6.90625 3.546875,9.3125 2.363281,2.398437 5.484375,3.59375 9.359375,3.59375 3.726562,0 6.796875,-1.21875 9.203125,-3.65625 2.40625,-2.4375 3.609375,-5.523437 3.609375,-9.265625 0,-3.800781 -1.242188,-6.921875 -3.71875,-9.359375 -2.46875,-2.4375 -5.5,-3.65625 -9.09375,-3.65625 -3.65625,0 -6.726562,1.21875 -9.203125,3.65625 z m 0,0" id="SvgjsPath1060"></path>
      </g>
    </g>
  </g>
  <g fill="#ffc36e" fill-opacity="1" id="SvgjsG1059" transform="translate(-462.51431,-262.56459)">
    <g transform="translate(126.65982,538.96587)" id="SvgjsG1058">
      <g id="SvgjsG1057">
        <path d="M 62.328125,-24.96875 H 22.28125 c 0,3.875 1.253906,6.746094 3.765625,8.609375 2.507813,1.867187 5.238281,2.796875 8.1875,2.796875 3.082031,0 5.519531,-0.410156 7.3125,-1.234375 1.789063,-0.820313 3.835937,-2.457031 6.140625,-4.90625 L 61.46875,-12.8125 C 55.726562,-3.195312 46.179688,1.609375 32.828125,1.609375 c -8.324219,0 -15.464844,-2.847656 -21.421875,-8.546875 -5.960938,-5.707031 -8.9375,-12.578125 -8.9375,-20.609375 0,-8.039063 2.976562,-14.929687 8.9375,-20.671875 5.957031,-5.738281 13.097656,-8.609375 21.421875,-8.609375 8.757813,0 15.882813,2.53125 21.375,7.59375 5.488281,5.054687 8.234375,12.277344 8.234375,21.671875 0,1.292969 -0.03906,2.15625 -0.109375,2.59375 z M 22.8125,-35.515625 h 21 c -0.4375,-2.875 -1.574219,-5.082031 -3.40625,-6.625 -1.824219,-1.539063 -4.167969,-2.3125 -7.03125,-2.3125 -3.167969,0 -5.683594,0.828125 -7.546875,2.484375 -1.867187,1.648438 -2.871094,3.796875 -3.015625,6.453125 z m 0,0" id="SvgjsPath1056"></path>
      </g>
    </g>
  </g>
  <g fill="#ffc36e" fill-opacity="1" id="SvgjsG1055" transform="translate(-462.51431,-262.56459)">
    <g transform="translate(191.5615,538.96587)" id="SvgjsG1054">
      <g id="SvgjsG1053">
        <path d="m 63.296875,-48.375 c 5.164063,5.625 7.75,12.53125 7.75,20.71875 0,8.179688 -2.585937,15.101562 -7.75,20.765625 -5.167969,5.667969 -11.734375,8.5 -19.703125,8.5 -7.324219,0 -13.351562,-2.296875 -18.078125,-6.890625 V 27.984375 H 6.453125 V -55.21875 h 18.84375 v 6.25 h 0.21875 c 4.726563,-5.238281 10.753906,-7.859375 18.078125,-7.859375 7.96875,0 14.535156,2.820313 19.703125,8.453125 z M 47.09375,-18.296875 c 2.476562,-2.4375 3.71875,-5.554687 3.71875,-9.359375 0,-3.8125 -1.1875,-6.914062 -3.5625,-9.3125 -2.367188,-2.40625 -5.484375,-3.609375 -9.359375,-3.609375 -3.730469,0 -6.796875,1.21875 -9.203125,3.65625 -2.40625,2.4375 -3.609375,5.527344 -3.609375,9.265625 0,3.804688 1.234375,6.921875 3.703125,9.359375 2.476562,2.4375 5.515625,3.65625 9.109375,3.65625 3.65625,0 6.722656,-1.21875 9.203125,-3.65625 z m 0,0" id="SvgjsPath1052"></path>
      </g>
    </g>
  </g>
  <g fill="#ffc36e" fill-opacity="1" id="SvgjsG1051" transform="translate(-462.51431,-262.56459)">
    <g transform="translate(265.07368,538.96587)" id="SvgjsG1050">
      <g id="SvgjsG1049">
        <path d="m 10.21875,-6.828125 c -5.167969,-5.632813 -7.75,-12.539063 -7.75,-20.71875 0,-8.1875 2.582031,-15.113281 7.75,-20.78125 5.164062,-5.664063 11.734375,-8.5 19.703125,-8.5 7.320313,0 13.347656,2.296875 18.078125,6.890625 v -5.28125 H 67.0625 V 0 H 48.21875 V -6.25 H 48 c -4.730469,5.242188 -10.757812,7.859375 -18.078125,7.859375 -7.96875,0 -14.539063,-2.8125 -19.703125,-8.4375 z m 16.203125,-30.09375 c -2.46875,2.4375 -3.703125,5.5625 -3.703125,9.375 0,3.804687 1.179688,6.90625 3.546875,9.3125 2.363281,2.398437 5.484375,3.59375 9.359375,3.59375 3.726562,0 6.796875,-1.21875 9.203125,-3.65625 2.40625,-2.4375 3.609375,-5.523437 3.609375,-9.265625 0,-3.800781 -1.242188,-6.921875 -3.71875,-9.359375 -2.46875,-2.4375 -5.5,-3.65625 -9.09375,-3.65625 -3.65625,0 -6.726562,1.21875 -9.203125,3.65625 z m 0,0" id="SvgjsPath1048"></path>
      </g>
    </g>
  </g>
  <g fill="#ffc36e" fill-opacity="1" id="SvgjsG1047" transform="translate(-462.51431,-262.56459)">
    <g transform="translate(338.58587,538.96587)" id="SvgjsG1046">
      <g id="SvgjsG1045">
        <path d="m 6.453125,0 v -55.21875 h 19.0625 V -47.25 h 0.203125 c 0.144531,-0.289062 0.378906,-0.648438 0.703125,-1.078125 0.320313,-0.425781 1.019531,-1.175781 2.09375,-2.25 1.082031,-1.082031 2.234375,-2.054687 3.453125,-2.921875 1.21875,-0.863281 2.796875,-1.632812 4.734375,-2.3125 1.9375,-0.675781 3.910156,-1.015625 5.921875,-1.015625 2.082031,0 4.128906,0.289063 6.140625,0.859375 2.007813,0.574219 3.476563,1.148438 4.40625,1.71875 L 54.6875,-53.390625 46.71875,-37.25 c -2.375,-2 -5.679688,-3 -9.90625,-3 -2.292969,0 -4.265625,0.5 -5.921875,1.5 -1.648437,1 -2.8125,2.21875 -3.5,3.65625 -0.679687,1.4375 -1.164063,2.664062 -1.453125,3.671875 -0.28125,1 -0.421875,1.789063 -0.421875,2.359375 V 0 Z m 0,0" id="SvgjsPath1044"></path>
      </g>
    </g>
  </g>
  <g fill="#ffc36e" fill-opacity="1" id="SvgjsG1043" transform="translate(-462.51431,-262.56459)">
    <g transform="translate(392.18627,538.96587)" id="SvgjsG1042">
      <g id="SvgjsG1041">
        <path d="m 9.6875,-55.21875 v -20.5625 h 19.046875 v 20.5625 h 11.625 v 14.53125 h -11.625 v 17.546875 c 0,5.09375 1.4375,7.640625 4.3125,7.640625 0.71875,0 1.46875,-0.140625 2.25,-0.421875 0.789063,-0.289063 1.40625,-0.582031 1.84375,-0.875 l 0.640625,-0.421875 4.734375,15.390625 c -4.09375,2.289063 -8.757813,3.4375 -13.984375,3.4375 -3.59375,0 -6.683594,-0.625 -9.265625,-1.875 -2.585937,-1.257813 -4.542969,-2.945313 -5.875,-5.0625 C 12.066406,-7.441406 11.117188,-9.664062 10.546875,-12 9.972656,-14.332031 9.6875,-16.828125 9.6875,-19.484375 V -40.6875 H 1.71875 v -14.53125 z m 0,0" id="SvgjsPath1040"></path>
      </g>
    </g>
  </g>
  <g fill="#ffc36e" fill-opacity="1" id="SvgjsG1039" transform="translate(-462.51431,-262.56459)">
    <g transform="translate(434.70064,538.96587)" id="SvgjsG1038">
      <g id="SvgjsG1037">
        <path d="m 6.453125,0 v -55.21875 h 19.0625 v 5.8125 h 0.203125 c 4.957031,-4.945312 10.234375,-7.421875 15.828125,-7.421875 4.019531,0 7.785156,0.824219 11.296875,2.46875 3.519531,1.648437 6.175781,4.195313 7.96875,7.640625 5.601562,-6.738281 11.703125,-10.109375 18.296875,-10.109375 5.882813,0 10.941406,1.652344 15.171875,4.953125 4.238281,3.292969 6.35938,8.460938 6.35938,15.5 V 0 H 81.59375 v -31.21875 c 0,-2.9375 -0.808594,-5.390625 -2.421875,-7.359375 -1.617187,-1.976563 -4.039063,-2.96875 -7.265625,-2.96875 -2.804688,0 -4.9375,0.84375 -6.40625,2.53125 -1.46875,1.6875 -2.277344,3.714844 -2.421875,6.078125 V 0 H 44.03125 v -31.21875 c 0,-2.9375 -0.808594,-5.390625 -2.421875,-7.359375 -1.617187,-1.976563 -4.039063,-2.96875 -7.265625,-2.96875 -2.949219,0 -5.15625,0.917969 -6.625,2.75 -1.46875,1.824219 -2.203125,3.992187 -2.203125,6.5 V 0 Z m 0,0" id="SvgjsPath1036"></path>
      </g>
    </g>
  </g>
  <g fill="#ffc36e" fill-opacity="1" id="SvgjsG1035" transform="translate(-462.51431,-262.56459)">
    <g transform="translate(540.71749,538.96587)" id="SvgjsG1034">
      <g id="SvgjsG1033">
        <path d="M 62.328125,-24.96875 H 22.28125 c 0,3.875 1.253906,6.746094 3.765625,8.609375 2.507813,1.867187 5.238281,2.796875 8.1875,2.796875 3.082031,0 5.519531,-0.410156 7.3125,-1.234375 1.789063,-0.820313 3.835937,-2.457031 6.140625,-4.90625 L 61.46875,-12.8125 C 55.726562,-3.195312 46.179688,1.609375 32.828125,1.609375 c -8.324219,0 -15.464844,-2.847656 -21.421875,-8.546875 -5.960938,-5.707031 -8.9375,-12.578125 -8.9375,-20.609375 0,-8.039063 2.976562,-14.929687 8.9375,-20.671875 5.957031,-5.738281 13.097656,-8.609375 21.421875,-8.609375 8.757813,0 15.882813,2.53125 21.375,7.59375 5.488281,5.054687 8.234375,12.277344 8.234375,21.671875 0,1.292969 -0.03906,2.15625 -0.109375,2.59375 z M 22.8125,-35.515625 h 21 c -0.4375,-2.875 -1.574219,-5.082031 -3.40625,-6.625 -1.824219,-1.539063 -4.167969,-2.3125 -7.03125,-2.3125 -3.167969,0 -5.683594,0.828125 -7.546875,2.484375 -1.867187,1.648438 -2.871094,3.796875 -3.015625,6.453125 z m 0,0" id="SvgjsPath1032"></path>
      </g>
    </g>
  </g>
  <g fill="#ffc36e" fill-opacity="1" id="SvgjsG1031" transform="translate(-462.51431,-262.56459)">
    <g transform="translate(605.61915,538.96587)" id="SvgjsG1030">
      <g id="SvgjsG1029">
        <path d="m 6.453125,0 v -55.21875 h 19.0625 v 5.8125 h 0.203125 c 4.957031,-4.945312 10.234375,-7.421875 15.828125,-7.421875 2.726563,0 5.4375,0.359375 8.125,1.078125 2.695313,0.710938 5.28125,1.820312 7.75,3.328125 2.476563,1.511719 4.488281,3.648437 6.03125,6.40625 1.539063,2.761719 2.3125,5.976563 2.3125,9.640625 V 0 H 46.71875 v -31.21875 c 0,-2.863281 -0.917969,-5.375 -2.75,-7.53125 -1.835938,-2.15625 -4.21875,-3.234375 -7.15625,-3.234375 -2.875,0 -5.480469,1.117187 -7.8125,3.34375 -2.324219,2.21875 -3.484375,4.695313 -3.484375,7.421875 V 0 Z m 0,0" id="SvgjsPath1028"></path>
      </g>
    </g>
  </g>
  <g fill="#ffc36e" fill-opacity="1" id="SvgjsG1027" transform="translate(-462.51431,-262.56459)">
    <g transform="translate(676.76343,538.96587)" id="SvgjsG1026">
      <g id="SvgjsG1025">
        <path d="m 9.6875,-55.21875 v -20.5625 h 19.046875 v 20.5625 h 11.625 v 14.53125 h -11.625 v 17.546875 c 0,5.09375 1.4375,7.640625 4.3125,7.640625 0.71875,0 1.46875,-0.140625 2.25,-0.421875 0.789063,-0.289063 1.40625,-0.582031 1.84375,-0.875 l 0.640625,-0.421875 4.734375,15.390625 c -4.09375,2.289063 -8.757813,3.4375 -13.984375,3.4375 -3.59375,0 -6.683594,-0.625 -9.265625,-1.875 -2.585937,-1.257813 -4.542969,-2.945313 -5.875,-5.0625 C 12.066406,-7.441406 11.117188,-9.664062 10.546875,-12 9.972656,-14.332031 9.6875,-16.828125 9.6875,-19.484375 V -40.6875 H 1.71875 v -14.53125 z m 0,0" id="SvgjsPath1024"></path>
      </g>
    </g>
  </g>
  <g fill="#ffc36e" fill-opacity="1" id="SvgjsG1023" transform="translate(-462.51431,-262.56459)">
    <g transform="translate(719.27783,538.96587)" id="SvgjsG1022">
      <g id="SvgjsG1021">
        <path d="m 18.734375,-23.03125 c 3.4375,0 6.359375,1.203125 8.765625,3.609375 2.40625,2.398437 3.609375,5.320313 3.609375,8.765625 0,3.375 -1.203125,6.265625 -3.609375,8.671875 -2.40625,2.394531 -5.328125,3.59375 -8.765625,3.59375 -3.375,0 -6.265625,-1.199219 -8.671875,-3.59375 -2.40625,-2.40625 -3.609375,-5.296875 -3.609375,-8.671875 0,-3.445312 1.203125,-6.367188 3.609375,-8.765625 2.40625,-2.40625 5.296875,-3.609375 8.671875,-3.609375 z m 0,0" id="SvgjsPath1020"></path>
      </g>
    </g>
  </g>
  <g clip-path="url(#aa5a3568ae)" id="SvgjsG1019" transform="translate(-462.51431,-262.56459)">
    <g clip-path="url(#f18ff5958d)" id="SvgjsG1018">
      <g clip-path="url(#b2603829e8)" id="SvgjsG1017">
        <path fill="#ffc36e" d="m 500.88281,311.23828 c -0.13281,-0.42187 -0.48437,-1.01953 -1.05859,-1.41797 -0.65625,-0.44531 -1.44922,-0.52734 -2.35156,-0.24609 l -4.20704,1.3125 1.54688,4.97656 4.19531,-1.3125 c 0.0664,-0.0195 0.85156,-0.3125 1.42969,-0.85156 0.81641,-0.78906 0.69531,-1.64844 0.44531,-2.46094 z m 0,0" fill-opacity="1" fill-rule="nonzero" id="SvgjsPath1016"></path>
      </g>
    </g>
  </g>
  <g clip-path="url(#be41252d00)" id="SvgjsG1015" transform="translate(-462.51431,-262.56459)">
    <g clip-path="url(#f3f266acfd)" id="SvgjsG1014">
      <g clip-path="url(#c3c60cc89a)" id="SvgjsG1013">
        <path fill="#ffc36e" d="m 518.19141,305.31641 4.07421,-0.41016 -2.48046,-4.36719 z m 0,0" fill-opacity="1" fill-rule="nonzero" id="SvgjsPath1012"></path>
      </g>
    </g>
  </g>
  <g clip-path="url(#f1e062a791)" id="SvgjsG1011" transform="translate(-462.51431,-262.56459)">
    <g clip-path="url(#f951b39121)" id="SvgjsG1010">
      <g clip-path="url(#988357fa58)" id="SvgjsG1009">
        <path fill="#ffc36e" d="m 494.87109,301.31641 c -0.375,-0.0937 -0.78906,-0.0156 -1.07812,0.0742 l -3.19141,0.9961 0.96875,3.08984 2.35156,-0.73437 c 0.71875,-0.22266 2.33985,-0.89063 1.90235,-2.28125 -0.30078,-0.97266 -0.79688,-1.09766 -0.95313,-1.14453 z m 0,0" fill-opacity="1" fill-rule="nonzero" id="SvgjsPath1008"></path>
      </g>
    </g>
  </g>
  <g clip-path="url(#c2d06160d2)" id="SvgjsG1007" transform="translate(-462.51431,-262.56459)">
    <g clip-path="url(#fd24ffcdc3)" id="SvgjsG1006">
      <g clip-path="url(#56058d9eff)" id="SvgjsG1005">
        <path fill="#ffc36e" d="m 611.89062,304.83203 c -0.4375,-3.39062 -1.52343,-6.76172 -3.28906,-9.77734 -1.76953,-3.01953 -4.21875,-5.66407 -7.08984,-7.65625 -2.8711,-1.9961 -6.12891,-3.35157 -9.4336,-4.11328 -2.45312,-0.57813 -4.93359,-0.83985 -7.38281,-0.8711 -1.82422,-4.13672 -4.60156,-7.90625 -8.07031,-10.82422 -4.12109,-3.49609 -9.10156,-5.85547 -14.33203,-6.93359 -5.23047,-1.07813 -10.76172,-0.93359 -15.98047,0.78516 -2.60156,0.85156 -5.10938,2.10546 -7.35156,3.76953 -0.99219,0.72656 -1.9336,1.53906 -2.80469,2.42187 -2.72656,-2.78906 -5.98438,-5.08984 -9.60547,-6.64062 -5.02344,-2.1836 -10.67187,-2.92578 -16.10937,-2.09766 -5.42969,0.83203 -10.63672,3.26563 -14.73829,6.98828 -3.41015,3.07813 -5.97265,7.00391 -7.57812,11.20703 -2.90625,0.1211 -5.82422,0.69141 -8.58203,1.77735 -3.65235,1.41797 -6.94531,3.74218 -9.52735,6.625 -2.60156,2.8789 -4.53125,6.27734 -5.76171,9.85547 -1.23438,3.60156 -1.80079,7.33984 -1.73438,11.13671 0.0898,3.89454 1.09375,7.76172 2.89063,11.20313 1.79296,3.44141 4.34375,6.47266 7.4375,8.78516 3.08203,2.32812 6.66796,3.96093 10.41015,4.78125 3.11328,0.68359 6.3125,0.80859 9.42969,0.47656 2.26562,2.41797 4.91797,4.53906 7.90625,6.13672 3.56641,1.89843 7.57812,3.01562 11.61719,3.17968 4.04297,0.17188 8.10547,-0.53906 11.85937,-2.20312 1.875,-0.83594 3.6875,-1.91797 5.32422,-3.36719 0.0273,-0.0273 0.0586,-0.0508 0.0898,-0.0781 1.1875,2.23047 2.66016,4.28125 4.32813,6.08984 3.08203,3.32813 6.69531,6.01953 10.91406,7.89453 1.07031,0.46094 2.17578,0.85547 3.42188,1.14844 l 0.22656,0.0547 0.31641,0.0547 c 0.21093,0.0391 0.44531,0.0586 0.6875,0.082 0.47656,0.0312 1.02734,0 1.60546,-0.14063 0.57422,-0.13672 1.27735,-0.375 1.8086,-0.77344 0.52734,-0.39453 1,-0.98047 1.21484,-1.54687 1.23438,-3.28125 -2.23047,-2.8711 -3.13672,-11.11328 -0.1914,-1.77735 0.0625,-2.95313 0.14844,-3.41797 0.52344,0.4375 1.48438,1.22656 2.03125,1.63281 1.66406,1.20703 3.44141,2.28516 5.33594,3.17969 3.76953,1.79297 8.07031,2.75 12.36719,2.51953 4.29687,-0.22266 8.50781,-1.60156 12.1289,-3.89844 3.11328,-1.98047 5.79297,-4.6289 7.82031,-7.73437 2.86329,-0.20313 5.76172,-0.90625 8.39063,-2.2461 3.18359,-1.59375 5.90625,-4.01953 7.92969,-6.83203 2.03906,-2.82422 3.4375,-6.00781 4.25,-9.30859 0.82031,-3.32813 1.05859,-6.77735 0.61718,-10.21094 z m -110.92187,15.08594 -7.4375,2.32422 c -0.26563,0.082 -0.54297,0.1289 -0.81641,0.14062 -0.5039,0.0274 -1.0039,-0.0664 -1.46875,-0.26562 -0.73828,-0.33203 -1.27343,-0.92969 -1.5039,-1.66797 l -5.91407,-18.96094 c -0.46484,-1.48828 0.47657,-3.12109 2.08985,-3.62891 l 5.87109,-1.83203 c 0.4961,-0.15234 2.15235,-0.50781 3.90625,-0.32422 2.99219,0.34766 5.1211,2.08985 5.9961,4.91407 0.375,1.21093 0.44921,2.43359 0.21484,3.58593 2.36328,0.82032 4.07812,2.63282 4.87891,5.19532 1.49218,4.74218 -1.8086,9.26953 -5.81641,10.51953 z M 532.26953,313.75 c -0.51562,0.59766 -1.26562,0.97266 -2.10937,1.05469 -1.25391,0.1289 -2.42969,-0.44922 -3.01954,-1.47266 l -1.76171,-3.03516 -9.1875,0.92969 -1.1211,3.32422 c -0.36719,1.12109 -1.41015,1.92188 -2.66406,2.05078 -0.28125,0.0274 -0.55469,0.0195 -0.81641,-0.0195 -0.52734,-0.082 -1.01953,-0.28516 -1.4414,-0.61328 -0.6211,-0.47656 -1.01172,-1.16797 -1.08985,-1.88281 -0.0391,-0.42188 -0.008,-0.78125 0.1211,-1.13282 l 6.86328,-20.60937 c 0.3789,-1.10547 1.45703,-1.92969 2.70312,-2.05078 1.21485,-0.125 2.42188,0.46875 3.00782,1.46875 l 10.84375,18.83594 c 0.23437,0.38671 0.3125,0.80078 0.33984,1.08203 0.0742,0.73437 -0.17188,1.48828 -0.66797,2.07031 z m 20.50391,1.39844 c -0.47657,0.24609 -1.03907,0.37109 -1.59375,0.34375 -1.05469,-0.0508 -2.00391,-0.57422 -2.54297,-1.39453 l -0.004,-0.008 -4.35156,-6.85547 -2.42578,-0.11328 -0.23828,5.08594 c -0.0781,1.56641 -1.53125,2.76563 -3.24219,2.68359 -0.28125,-0.008 -0.55078,-0.0625 -0.81641,-0.14062 -1.27734,-0.39453 -2.18359,-1.53516 -2.1289,-2.83984 l 0.93359,-19.84375 c 0.0781,-1.5625 1.51563,-2.76954 3.20313,-2.6875 l 6.0664,0.28515 c 0.2461,0.0156 2.42188,0.14453 4.64453,1.24219 3.24219,1.63281 4.9336,4.46484 4.76563,7.99219 -0.008,0.22656 -0.13672,2.25 -1.37891,4.23828 l -0.004,0.008 c -0.77735,1.21094 -1.77735,2.16406 -2.99219,2.85547 l 3.30469,5.23828 c 0.30859,0.50391 0.44531,1.01953 0.41406,1.55469 -0.043,0.99219 -0.66016,1.88281 -1.61328,2.35547 z m 21.61328,4.875 c -0.69141,0.34765 -1.5,0.42187 -2.27344,0.21875 -0.83203,-0.21875 -1.50391,-0.71485 -1.9375,-1.44141 l -5.70703,-9.625 -1.52344,5.67188 c -0.39844,1.51171 -2.08594,2.38281 -3.73828,1.9414 -0.26953,-0.0703 -0.53516,-0.17969 -0.76953,-0.30859 -0.4375,-0.2461 -0.8125,-0.59375 -1.09375,-1.00781 -0.44531,-0.67188 -0.58203,-1.46094 -0.37891,-2.21094 l 5.13672,-19.1875 c 0.20313,-0.75391 0.70313,-1.36328 1.4336,-1.73047 0.6914,-0.34766 1.5,-0.41797 2.26953,-0.21484 1.66406,0.44531 2.68359,2.03515 2.28125,3.54296 l -1.51953,5.67579 9.7539,-5.48438 c 0.71094,-0.39844 1.58203,-0.50391 2.39453,-0.28516 1.63672,0.4375 2.64844,2.02344 2.23438,3.53907 -0.19141,0.72656 -0.66016,1.32422 -1.3125,1.69922 l -9.96094,5.57031 5.84766,9.79687 c 0.38281,0.63672 0.48828,1.41407 0.30078,2.125 -0.20313,0.74219 -0.71094,1.35157 -1.4375,1.71485 z m 9.39844,2.07422 c -0.51954,0.76562 -1.1875,1.24218 -2.02344,1.42578 -0.83203,0.17578 -1.66016,0 -2.47656,-0.54688 -0.8125,-0.54687 -1.30469,-1.24219 -1.46485,-2.0664 -0.16406,-0.83985 0.0195,-1.63672 0.54297,-2.41407 0.51953,-0.77343 1.19922,-1.2539 2.03906,-1.42968 0.83985,-0.17188 1.66016,0.0117 2.48047,0.5625 0.82422,0.55078 1.30078,1.23828 1.45313,2.07812 0.14453,0.8125 -0.0352,1.62109 -0.55078,2.39063 z m 10.45312,-14.75782 -6.83594,8.72657 c -0.90625,1.15625 -2.3125,1.48046 -3.8125,0.47656 -1.50781,-1.00391 -1.73828,-2.42578 -1.01172,-3.70313 l 5.45704,-9.65234 c 1.30078,-2.29688 3.53906,-3.47266 5.80078,-1.96484 2.26953,1.51953 2.03125,4.03125 0.40234,6.11718 z m 0,0" fill-opacity="1" fill-rule="nonzero" id="SvgjsPath1004"></path>
      </g>
    </g>
  </g>
  <g clip-path="url(#5407e0c636)" id="SvgjsG1003" transform="translate(-462.51431,-262.56459)">
    <g clip-path="url(#9abbd84034)" id="SvgjsG1002">
      <g clip-path="url(#5eefe741d6)" id="SvgjsG1001">
        <path fill="#ffc36e" d="m 547.35547,295.89453 c -0.92969,-0.46875 -1.98438,-0.52734 -1.99219,-0.53125 l -2.95312,-0.14062 -0.28907,6.1914 2.95313,0.13672 c 2.02734,0.0977 2.76172,-0.60937 3.17187,-1.23047 0.52735,-0.79297 0.60938,-1.66406 0.61328,-1.71875 0.0664,-1.32812 -0.39062,-2.14062 -1.5039,-2.70703 z m 0,0" fill-opacity="1" fill-rule="nonzero" id="SvgjsPath1000"></path>
      </g>
    </g>
  </g>
</svg><style>@media (prefers-color-scheme: light) { :root { filter: none; } }
@media (prefers-color-scheme: dark) { :root { filter: none; } }
</style></svg>