<?xml version="1.0" standalone="no"?>
<!DOCTYPE svg PUBLIC "-//W3C//DTD SVG 20010904//EN"
 "http://www.w3.org/TR/2001/REC-SVG-20010904/DTD/svg10.dtd">
<svg version="1.0" xmlns="http://www.w3.org/2000/svg"
 width="128.000000pt" height="128.000000pt" viewBox="0 0 128.000000 128.000000"
 preserveAspectRatio="xMidYMid meet">
<metadata>
Created by potrace 1.14, written by Peter Selinger 2001-2017
</metadata>
<g transform="translate(0.000000,128.000000) scale(0.100000,-0.100000)"
fill="#000000" stroke="none">
<path d="M378 1016 c-60 -21 -102 -53 -132 -100 -16 -25 -32 -46 -35 -47 -127
-15 -213 -120 -206 -249 3 -64 9 -83 42 -127 33 -46 98 -80 165 -88 32 -4 63
-14 70 -22 45 -55 172 -73 248 -35 l44 21 15 -22 c51 -72 154 -125 181 -92 10
12 8 25 -6 65 -10 27 -16 52 -13 54 3 3 29 -7 58 -21 94 -47 194 -29 265 46
17 17 39 31 51 31 11 0 37 11 57 25 131 89 117 306 -24 373 -24 11 -59 23 -78
26 -22 3 -41 14 -50 28 -31 47 -94 98 -143 114 -72 24 -171 15 -222 -19 l-38
-26 -31 24 c-60 46 -152 63 -218 41z m389 -250 c28 -33 29 -56 3 -88 -17 -22
-18 -27 -5 -44 19 -25 19 -50 0 -58 -10 -4 -25 8 -43 34 -29 43 -47 47 -47 10
0 -29 -32 -51 -44 -31 -9 14 -5 171 4 198 2 8 22 11 56 9 43 -3 57 -9 76 -30z
m-218 -65 c49 -86 57 -121 25 -121 -7 0 -18 9 -24 20 -16 29 -77 24 -97 -7
-18 -27 -53 -31 -53 -6 0 23 50 174 63 191 20 25 37 10 86 -77z m346 27 l-7
-29 50 25 c43 22 52 23 62 11 16 -19 7 -31 -41 -55 -21 -11 -39 -24 -39 -29 0
-5 11 -28 24 -52 27 -46 26 -59 -4 -59 -11 0 -28 17 -43 43 l-25 42 -11 -27
c-13 -34 -26 -41 -44 -24 -12 13 -11 26 9 102 13 48 29 91 36 95 21 13 40 -11
33 -43z m-591 5 c11 -6 27 -26 37 -44 10 -19 23 -44 30 -56 27 -50 -19 -101
-98 -106 l-36 -2 -29 89 c-31 98 -30 103 25 122 37 13 45 12 71 -3z m824 -56
c4 -20 -66 -117 -84 -117 -32 0 -14 71 31 127 14 18 49 11 53 -10z m-99 -126
c8 -5 11 -16 8 -25 -8 -21 -43 -21 -51 0 -11 30 13 44 43 25z"/>
<path d="M680 722 c0 -23 4 -28 21 -27 31 2 44 31 20 45 -31 16 -41 12 -41
-18z"/>
<path d="M480 680 c0 -13 5 -18 15 -14 12 5 13 10 4 20 -15 19 -19 18 -19 -6z"/>
<path d="M250 690 c-13 -9 -13 -11 0 -20 18 -11 39 5 24 20 -6 6 -15 6 -24 0z"/>
<path d="M284 623 c-16 -3 -20 -9 -17 -24 6 -22 35 -25 53 -4 11 14 6 36 -8
34 -4 -1 -17 -4 -28 -6z"/>
</g>
</svg>
